<?xml version="1.0" encoding="utf-8"?>
<!-- Generator: Adobe Illustrator 27.9.0, SVG Export Plug-In . SVG Version: 6.00 Build 0)  -->
<svg version="1.1" id="Layer_1" xmlns="http://www.w3.org/2000/svg" xmlns:xlink="http://www.w3.org/1999/xlink" x="0px" y="0px"
	 viewBox="0 0 298.8 50.9" style="enable-background:new 0 0 298.8 50.9;" xml:space="preserve">
<style type="text/css">
	.st0{fill:#E42313;}
</style>
<g id="Brandmark">
	<g>
		<g>
			<path class="st0" d="M269.9,2.3c0,1.3-1,2.3-2.3,2.3c-1.3,0-2.3-1-2.3-2.3c0-1.3,1-2.3,2.3-2.3C268.9,0,269.9,1,269.9,2.3"/>
			<path class="st0" d="M275.6,2.3c0,1.3-1,2.3-2.3,2.3c-1.3,0-2.3-1-2.3-2.3c0-1.3,1-2.3,2.3-2.3C274.6,0,275.6,1,275.6,2.3"/>
			<path class="st0" d="M281.3,2.3c0,1.3-1,2.3-2.3,2.3c-1.3,0-2.3-1-2.3-2.3c0-1.3,1-2.3,2.3-2.3C280.3,0,281.3,1,281.3,2.3"/>
			<path class="st0" d="M269.9,8.1c0,1.3-1,2.3-2.3,2.3c-1.3,0-2.3-1-2.3-2.3c0-1.3,1-2.3,2.3-2.3C268.9,5.8,269.9,6.8,269.9,8.1"/>
			<path class="st0" d="M275.6,8.1c0,1.3-1,2.3-2.3,2.3c-1.3,0-2.3-1-2.3-2.3c0-1.3,1-2.3,2.3-2.3C274.6,5.8,275.6,6.8,275.6,8.1"/>
			<path class="st0" d="M281.3,8.1c0,1.3-1,2.3-2.3,2.3c-1.3,0-2.3-1-2.3-2.3c0-1.3,1-2.3,2.3-2.3C280.3,5.8,281.3,6.8,281.3,8.1"/>
			<path class="st0" d="M269.9,13.9c0,1.3-1,2.3-2.3,2.3c-1.3,0-2.3-1-2.3-2.3c0-1.3,1-2.3,2.3-2.3
				C268.9,11.6,269.9,12.6,269.9,13.9"/>
			<path class="st0" d="M275.6,13.9c0,1.3-1,2.3-2.3,2.3c-1.3,0-2.3-1-2.3-2.3c0-1.3,1-2.3,2.3-2.3
				C274.6,11.6,275.6,12.6,275.6,13.9"/>
			<path class="st0" d="M281.3,13.9c0,1.3-1,2.3-2.3,2.3c-1.3,0-2.3-1-2.3-2.3c0-1.3,1-2.3,2.3-2.3
				C280.3,11.6,281.3,12.6,281.3,13.9"/>
			<path class="st0" d="M269.9,19.7c0,1.3-1,2.3-2.3,2.3c-1.3,0-2.3-1-2.3-2.3c0-1.3,1-2.3,2.3-2.3
				C268.9,17.3,269.9,18.4,269.9,19.7"/>
			<path class="st0" d="M275.6,19.7c0,1.3-1,2.3-2.3,2.3c-1.3,0-2.3-1-2.3-2.3c0-1.3,1-2.3,2.3-2.3
				C274.6,17.3,275.6,18.4,275.6,19.7"/>
			<path class="st0" d="M281.3,19.7c0,1.3-1,2.3-2.3,2.3c-1.3,0-2.3-1-2.3-2.3c0-1.3,1-2.3,2.3-2.3
				C280.3,17.3,281.3,18.4,281.3,19.7"/>
			<path class="st0" d="M269.9,25.4c0,1.3-1,2.3-2.3,2.3c-1.3,0-2.3-1-2.3-2.3c0-1.3,1-2.3,2.3-2.3
				C268.9,23.1,269.9,24.2,269.9,25.4"/>
			<path class="st0" d="M275.6,25.4c0,1.3-1,2.3-2.3,2.3c-1.3,0-2.3-1-2.3-2.3c0-1.3,1-2.3,2.3-2.3
				C274.6,23.1,275.6,24.2,275.6,25.4"/>
			<path class="st0" d="M281.3,25.4c0,1.3-1,2.3-2.3,2.3c-1.3,0-2.3-1-2.3-2.3c0-1.3,1-2.3,2.3-2.3
				C280.3,23.1,281.3,24.2,281.3,25.4"/>
			<path class="st0" d="M269.9,31.2c0,1.3-1,2.3-2.3,2.3c-1.3,0-2.3-1-2.3-2.3c0-1.3,1-2.3,2.3-2.3
				C268.9,28.9,269.9,29.9,269.9,31.2"/>
			<path class="st0" d="M275.6,31.2c0,1.3-1,2.3-2.3,2.3c-1.3,0-2.3-1-2.3-2.3c0-1.3,1-2.3,2.3-2.3
				C274.6,28.9,275.6,29.9,275.6,31.2"/>
			<path class="st0" d="M281.3,31.2c0,1.3-1,2.3-2.3,2.3c-1.3,0-2.3-1-2.3-2.3c0-1.3,1-2.3,2.3-2.3
				C280.3,28.9,281.3,29.9,281.3,31.2"/>
			<path class="st0" d="M269.9,37c0,1.3-1,2.3-2.3,2.3c-1.3,0-2.3-1-2.3-2.3c0-1.3,1-2.3,2.3-2.3C268.9,34.7,269.9,35.7,269.9,37"/>
			<path class="st0" d="M275.6,37c0,1.3-1,2.3-2.3,2.3c-1.3,0-2.3-1-2.3-2.3c0-1.3,1-2.3,2.3-2.3C274.6,34.7,275.6,35.7,275.6,37"/>
			<path class="st0" d="M281.3,37c0,1.3-1,2.3-2.3,2.3c-1.3,0-2.3-1-2.3-2.3c0-1.3,1-2.3,2.3-2.3C280.3,34.7,281.3,35.7,281.3,37"/>
			<path class="st0" d="M269.9,42.8c0,1.3-1,2.3-2.3,2.3c-1.3,0-2.3-1-2.3-2.3c0-1.3,1-2.3,2.3-2.3
				C268.9,40.5,269.9,41.5,269.9,42.8"/>
			<path class="st0" d="M275.6,42.8c0,1.3-1,2.3-2.3,2.3c-1.3,0-2.3-1-2.3-2.3c0-1.3,1-2.3,2.3-2.3
				C274.6,40.5,275.6,41.5,275.6,42.8"/>
			<path class="st0" d="M281.3,42.8c0,1.3-1,2.3-2.3,2.3c-1.3,0-2.3-1-2.3-2.3c0-1.3,1-2.3,2.3-2.3
				C280.3,40.5,281.3,41.5,281.3,42.8"/>
			<path class="st0" d="M269.9,48.6c0,1.3-1,2.3-2.3,2.3c-1.3,0-2.3-1-2.3-2.3c0-1.3,1-2.3,2.3-2.3
				C268.9,46.3,269.9,47.3,269.9,48.6"/>
			<path class="st0" d="M275.6,48.6c0,1.3-1,2.3-2.3,2.3c-1.3,0-2.3-1-2.3-2.3c0-1.3,1-2.3,2.3-2.3
				C274.6,46.3,275.6,47.3,275.6,48.6"/>
			<path class="st0" d="M281.3,48.6c0,1.3-1,2.3-2.3,2.3c-1.3,0-2.3-1-2.3-2.3c0-1.3,1-2.3,2.3-2.3
				C280.3,46.3,281.3,47.3,281.3,48.6"/>
			<path class="st0" d="M250.2,28.7c1.3,0,2.3,1,2.3,2.3c0,1.3-1,2.3-2.3,2.3c-1.3,0-2.3-1-2.3-2.3
				C247.9,29.8,248.9,28.7,250.2,28.7"/>
			<path class="st0" d="M250.2,23c1.3,0,2.3,1,2.3,2.3c0,1.3-1,2.3-2.3,2.3c-1.3,0-2.3-1-2.3-2.3C247.9,24.1,248.9,23,250.2,23"/>
			<path class="st0" d="M250.2,17.3c1.3,0,2.3,1,2.3,2.3c0,1.3-1,2.3-2.3,2.3c-1.3,0-2.3-1-2.3-2.3
				C247.9,18.4,248.9,17.3,250.2,17.3"/>
			<path class="st0" d="M256,28.7c1.3,0,2.3,1,2.3,2.3c0,1.3-1,2.3-2.3,2.3c-1.3,0-2.3-1-2.3-2.3C253.7,29.8,254.7,28.7,256,28.7"/>
			<path class="st0" d="M256,23c1.3,0,2.3,1,2.3,2.3c0,1.3-1,2.3-2.3,2.3c-1.3,0-2.3-1-2.3-2.3C253.7,24.1,254.7,23,256,23"/>
			<path class="st0" d="M256,17.3c1.3,0,2.3,1,2.3,2.3c0,1.3-1,2.3-2.3,2.3c-1.3,0-2.3-1-2.3-2.3C253.7,18.4,254.7,17.3,256,17.3"/>
			<path class="st0" d="M261.8,28.7c1.3,0,2.3,1,2.3,2.3c0,1.3-1,2.3-2.3,2.3c-1.3,0-2.3-1-2.3-2.3
				C259.5,29.8,260.5,28.7,261.8,28.7"/>
			<path class="st0" d="M261.8,23c1.3,0,2.3,1,2.3,2.3c0,1.3-1,2.3-2.3,2.3c-1.3,0-2.3-1-2.3-2.3C259.5,24.1,260.5,23,261.8,23"/>
			<path class="st0" d="M261.8,17.3c1.3,0,2.3,1,2.3,2.3c0,1.3-1,2.3-2.3,2.3c-1.3,0-2.3-1-2.3-2.3
				C259.5,18.4,260.5,17.3,261.8,17.3"/>
			<path class="st0" d="M273.3,23.1c1.3,0,2.3,1,2.3,2.3c0,1.3-1,2.3-2.3,2.3c-1.3,0-2.3-1-2.3-2.3C271,24.2,272.1,23.1,273.3,23.1"
				/>
			<path d="M284.9,28.7c1.3,0,2.3,1,2.3,2.3c0,1.3-1,2.3-2.3,2.3c-1.3,0-2.3-1-2.3-2.3C282.6,29.8,283.6,28.7,284.9,28.7"/>
			<path d="M284.9,23c1.3,0,2.3,1,2.3,2.3c0,1.3-1,2.3-2.3,2.3c-1.3,0-2.3-1-2.3-2.3C282.6,24.1,283.6,23,284.9,23"/>
			<path d="M284.9,17.3c1.3,0,2.3,1,2.3,2.3c0,1.3-1,2.3-2.3,2.3c-1.3,0-2.3-1-2.3-2.3C282.6,18.4,283.6,17.3,284.9,17.3"/>
			<path d="M290.7,28.7c1.3,0,2.3,1,2.3,2.3c0,1.3-1,2.3-2.3,2.3c-1.3,0-2.3-1-2.3-2.3C288.4,29.8,289.4,28.7,290.7,28.7"/>
			<path d="M290.7,23c1.3,0,2.3,1,2.3,2.3c0,1.3-1,2.3-2.3,2.3c-1.3,0-2.3-1-2.3-2.3C288.4,24.1,289.4,23,290.7,23"/>
			<path d="M290.7,17.3c1.3,0,2.3,1,2.3,2.3c0,1.3-1,2.3-2.3,2.3c-1.3,0-2.3-1-2.3-2.3C288.4,18.4,289.4,17.3,290.7,17.3"/>
			<path d="M296.5,28.7c1.3,0,2.3,1,2.3,2.3c0,1.3-1,2.3-2.3,2.3c-1.3,0-2.3-1-2.3-2.3C294.1,29.8,295.2,28.7,296.5,28.7"/>
			<path d="M296.5,23c1.3,0,2.3,1,2.3,2.3c0,1.3-1,2.3-2.3,2.3c-1.3,0-2.3-1-2.3-2.3C294.1,24.1,295.2,23,296.5,23"/>
			<path d="M296.5,17.3c1.3,0,2.3,1,2.3,2.3c0,1.3-1,2.3-2.3,2.3c-1.3,0-2.3-1-2.3-2.3C294.1,18.4,295.2,17.3,296.5,17.3"/>
		</g>
		<g>
			<g>
				<path d="M1.9,5.4H13l9.7,27.8l9.7-27.8h10.9l1.4,40.1h-7.5l-1.1-31.3L24.9,45.5h-5l-11-31.3l-1,31.3H0.4L1.9,5.4z"/>
				<path d="M51.1,5.4h25.3v6.5H58.9v10h13.8v6.4H58.9V39h18v6.5H51.1V5.4z"/>
				<path d="M82.5,5.4h7.8l19.5,28.2V5.4h7.6v40.1h-7.9l-19.5-28v28h-7.6V5.4z"/>
				<path d="M124.2,40.8L144,11.9h-18.9V5.4h28.9v4.7L134.4,39h20.2v6.5h-30.5V40.8z"/>
				<path d="M161.5,5.4h7.7v40.1h-7.7V5.4z"/>
				<path d="M176.4,5.4h25.3v6.5h-17.5v10H198v6.4h-13.8V39h18v6.5h-25.7V5.4z"/>
				<path d="M209.8,36c0,0,4.3,3.6,9.9,3.5c3.4,0,6.3-1.5,6.3-4.3c0-7.2-17.8-7-17.8-19c0-6.1,5-11.5,13.8-11.5
					c5.6,0,10.9,1.8,10.9,1.8l-1.3,7c0,0-4.7-2-9.5-2c-3.4,0-6.1,1.4-6.1,4c0,7.3,17.8,6.6,17.8,19.2c0,7.3-6.2,11.6-13.9,11.6
					c-7.3,0-12.3-3.4-12.3-3.4L209.8,36z"/>
			</g>
		</g>
	</g>
</g>
<g id="Guides">
</g>
</svg>
